<svg version="1.1" id="Layer_1" xmlns="http://www.w3.org/2000/svg" xmlns:xlink="http://www.w3.org/1999/xlink" x="0px" y="0px"
	 width="100%" viewBox="0 0 200 200" enable-background="new 0 0 200 200" xml:space="preserve">
<path fill="#000000" opacity="1.000000" stroke="none" 
	d="
M115.000000,201.000000 
	C76.690323,201.000000 38.880650,201.000000 1.035486,201.000000 
	C1.035486,134.398697 1.035486,67.797363 1.035486,1.098018 
	C67.559509,1.098018 134.119202,1.098018 200.839447,1.098018 
	C200.839447,67.666359 200.839447,134.333145 200.839447,201.000000 
	C172.464310,201.000000 143.982162,201.000000 115.000000,201.000000 
M140.594406,141.905563 
	C101.916550,103.324730 63.238686,64.743896 24.560827,26.163063 
	C23.216356,28.667706 23.026819,30.444750 23.020582,32.222435 
	C22.989614,41.048290 23.219322,49.881435 22.923849,58.697487 
	C22.759205,63.609978 24.491234,67.120216 27.934179,70.542351 
	C59.941669,102.356316 91.823051,134.297241 123.699585,166.242691 
	C125.677101,168.224472 127.184341,170.671005 129.126770,172.693451 
	C131.799805,175.476593 133.724258,179.168030 138.613678,179.068115 
	C149.433548,178.847031 160.261017,179.015625 171.085052,178.960831 
	C172.606705,178.953140 174.126511,178.583069 176.772400,178.231018 
	C164.290497,165.697296 152.692612,154.051270 140.594406,141.905563 
M84.080048,28.564707 
	C95.602493,40.091019 107.194801,51.548912 118.597931,63.192078 
	C121.425270,66.078949 123.371025,66.301338 126.309914,63.292294 
	C137.464417,51.871540 148.843994,40.670799 160.108749,29.357273 
	C161.210083,28.251171 162.100784,26.935324 163.863525,24.762407 
	C160.658585,24.428381 158.619110,24.036394 156.578644,24.031130 
	C137.786224,23.982635 118.993645,23.996742 100.201103,24.002893 
	C95.212234,24.004528 90.221092,23.956968 85.235344,24.092415 
	C81.972626,24.181051 81.360023,25.617886 84.080048,28.564707 
M63.066757,162.433044 
	C50.223652,149.651749 37.380547,136.870453 23.578838,123.135170 
	C23.267111,126.299370 23.029934,127.599266 23.027670,128.899567 
	C23.002441,143.395050 22.972488,157.890793 23.034872,172.386047 
	C23.059994,178.223450 23.815899,178.946701 29.807806,178.969833 
	C44.136520,179.025177 58.465630,179.005569 72.794449,178.967834 
	C74.348991,178.963730 75.902687,178.642517 78.895096,178.307220 
	C73.129204,172.523270 68.348541,167.727631 63.066757,162.433044 
z"/>
<path fill="#231F20" opacity="1.000000" stroke="none" 
	d="
M140.844574,142.155396 
	C152.692612,154.051270 164.290497,165.697296 176.772400,178.231018 
	C174.126511,178.583069 172.606705,178.953140 171.085052,178.960831 
	C160.261017,179.015625 149.433548,178.847031 138.613678,179.068115 
	C133.724258,179.168030 131.799805,175.476593 129.126770,172.693451 
	C127.184341,170.671005 125.677101,168.224472 123.699585,166.242691 
	C91.823051,134.297241 59.941669,102.356316 27.934179,70.542351 
	C24.491234,67.120216 22.759205,63.609978 22.923849,58.697487 
	C23.219322,49.881435 22.989614,41.048290 23.020582,32.222435 
	C23.026819,30.444750 23.216356,28.667706 24.560827,26.163063 
	C63.238686,64.743896 101.916550,103.324730 140.844574,142.155396 
z"/>
<path fill="#231F20" opacity="1.000000" stroke="none" 
	d="
M83.851685,28.322426 
	C81.360023,25.617886 81.972626,24.181051 85.235344,24.092415 
	C90.221092,23.956968 95.212234,24.004528 100.201103,24.002893 
	C118.993645,23.996742 137.786224,23.982635 156.578644,24.031130 
	C158.619110,24.036394 160.658585,24.428381 163.863525,24.762407 
	C162.100784,26.935324 161.210083,28.251171 160.108749,29.357273 
	C148.843994,40.670799 137.464417,51.871540 126.309914,63.292294 
	C123.371025,66.301338 121.425270,66.078949 118.597931,63.192078 
	C107.194801,51.548912 95.602493,40.091019 83.851685,28.322426 
z"/>
<path fill="#231F20" opacity="1.000000" stroke="none" 
	d="
M63.317314,162.682526 
	C68.348541,167.727631 73.129204,172.523270 78.895096,178.307220 
	C75.902687,178.642517 74.348991,178.963730 72.794449,178.967834 
	C58.465630,179.005569 44.136520,179.025177 29.807806,178.969833 
	C23.815899,178.946701 23.059994,178.223450 23.034872,172.386047 
	C22.972488,157.890793 23.002441,143.395050 23.027670,128.899567 
	C23.029934,127.599266 23.267111,126.299370 23.578838,123.135170 
	C37.380547,136.870453 50.223652,149.651749 63.317314,162.682526 
z"/>
</svg>